Coordinates
version=1
nRows=20
nColumns=38
inDegrees=no

Units are S.I. units (second, meters, Newtons, ...)
If the header above contains a line with 'inDegrees', this indicates whether rotational values are in degrees (yes) or radians (no).

endheader
time	pelvis_tilt	pelvis_list	pelvis_rotation	pelvis_tx	pelvis_ty	pelvis_tz	hip_flexion_r	hip_adduction_r	hip_rotation_r	knee_angle_r	ankle_angle_r	subtalar_angle_r	mtp_angle_r	hip_flexion_l	hip_adduction_l	hip_rotation_l	knee_angle_l	ankle_angle_l	subtalar_angle_l	mtp_angle_l	lumbar_extension	lumbar_bending	lumbar_rotation	arm_flex_r	arm_add_r	arm_rot_r	elbow_flex_r	pro_sup_r	wrist_flex_r	wrist_dev_r	arm_flex_l	arm_add_l	arm_rot_l	elbow_flex_l	pro_sup_l	wrist_flex_l	wrist_dev_l
15	-0.251253	1.4082	-1.23302	0.766427	0.245348	0.954041	0.0124309	-0.0325138	-0.287834	0.488922	-0.290485	0	0	-0.0292962	-0.103608	-0.0342813	0.381732	-0.271876	0	0	-0.535486	0.22619	0.371233	-0.472124	-0.169298	-0.582096	1.56104	1.5708	0	0	0.448118	0.0362848	0.275322	0.365915	1.5708	0	0
15.01	-0.251687	1.40866	-1.23262	0.766481	0.245433	0.954017	0.0130474	-0.0329172	-0.288488	0.489041	-0.290443	0	0	-0.0285996	-0.10387	-0.0361912	0.382165	-0.271942	0	0	-0.538285	0.22542	0.370944	-0.464619	-0.174582	-0.581912	1.56236	1.5708	0	0	0.455001	0.0390393	0.272075	0.367032	1.5708	0	0
15.02	-0.25216	1.40922	-1.23216	0.766533	0.245506	0.954007	0.0136449	-0.0331369	-0.288805	0.488805	-0.290446	0	0	-0.0279884	-0.104253	-0.0383401	0.382361	-0.272259	0	0	-0.540856	0.224642	0.36982	-0.456407	-0.18016	-0.580901	1.56301	1.5708	0	0	0.461792	0.0412594	0.268437	0.367988	1.5708	0	0
15.03	-0.25217	1.40997	-1.2322	0.766583	0.245558	0.954004	0.0144282	-0.0335108	-0.289138	0.4886	-0.290425	0	0	-0.0273407	-0.104625	-0.0404384	0.38253	-0.272622	0	0	-0.543411	0.223616	0.368652	-0.448375	-0.185723	-0.579672	1.56369	1.5708	0	0	0.468448	0.0433913	0.264459	0.369413	1.5708	0	0
15.04	-0.252196	1.41097	-1.23221	0.766629	0.245587	0.953962	0.0156502	-0.0341078	-0.289766	0.48897	-0.290775	0	0	-0.0261126	-0.104658	-0.0424624	0.382935	-0.273102	0	0	-0.545939	0.222451	0.367809	-0.440865	-0.191011	-0.578632	1.56473	1.5708	0	0	0.475157	0.0454779	0.260727	0.370983	1.5708	0	0
15.05	-0.251915	1.41202	-1.2326	0.766655	0.245608	0.953894	0.0171091	-0.0348267	-0.290499	0.489762	-0.291379	0	0	-0.0243812	-0.104402	-0.044301	0.383995	-0.273604	0	0	-0.548501	0.221174	0.367036	-0.433381	-0.196307	-0.577375	1.56583	1.5708	0	0	0.481905	0.0476474	0.256947	0.372526	1.5708	0	0
15.06	-0.252326	1.41322	-1.23246	0.766662	0.245627	0.953794	0.0185373	-0.0351479	-0.29064	0.489838	-0.292055	0	0	-0.0224858	-0.104128	-0.0457053	0.385067	-0.273793	0	0	-0.550938	0.219887	0.366267	-0.425784	-0.201708	-0.575793	1.56704	1.5708	0	0	0.488696	0.0498562	0.25301	0.373822	1.5708	0	0
15.07	-0.253253	1.41436	-1.23177	0.766661	0.245631	0.953696	0.019967	-0.0353425	-0.290657	0.490136	-0.292333	0	0	-0.0209978	-0.103899	-0.046209	0.385682	-0.273399	0	0	-0.553486	0.218813	0.365374	-0.417935	-0.207109	-0.574183	1.5685	1.5708	0	0	0.495585	0.0517176	0.249291	0.374638	1.5708	0	0
15.08	-0.254649	1.41535	-1.23056	0.766682	0.245633	0.953622	0.0211717	-0.0357896	-0.290361	0.490358	-0.292088	0	0	-0.0199184	-0.103637	-0.0458528	0.385719	-0.272823	0	0	-0.556254	0.217945	0.364451	-0.409905	-0.21256	-0.572548	1.56996	1.5708	0	0	0.502658	0.0535801	0.245748	0.375216	1.5708	0	0
15.09	-0.255683	1.41622	-1.22973	0.766695	0.245637	0.953566	0.0222193	-0.0360974	-0.290144	0.490531	-0.291698	0	0	-0.0187583	-0.103227	-0.0451816	0.386143	-0.272343	0	0	-0.559125	0.217056	0.36357	-0.401721	-0.217845	-0.571141	1.57129	1.5708	0	0	0.509899	0.0555265	0.24219	0.375678	1.5708	0	0
15.1	-0.256714	1.41714	-1.22889	0.766693	0.245636	0.953498	0.0233637	-0.0363212	-0.290126	0.490834	-0.291362	0	0	-0.0175883	-0.102893	-0.0445233	0.386486	-0.272179	0	0	-0.561766	0.216112	0.362696	-0.393401	-0.222847	-0.569907	1.57234	1.5708	0	0	0.5175	0.0576191	0.238581	0.375557	1.5708	0	0
15.11	-0.257676	1.41814	-1.22816	0.76667	0.245617	0.953429	0.0245515	-0.0365121	-0.289991	0.490947	-0.291236	0	0	-0.0169298	-0.102496	-0.043513	0.385715	-0.272257	0	0	-0.56423	0.215059	0.361864	-0.38506	-0.227312	-0.568744	1.57345	1.57056	0	0	0.525415	0.0597348	0.234935	0.375148	1.5708	0	0
15.12	-0.25872	1.41903	-1.22734	0.766625	0.245601	0.953382	0.0255139	-0.0365156	-0.289592	0.490715	-0.291406	0	0	-0.0163852	-0.102097	-0.042415	0.384838	-0.272466	0	0	-0.566751	0.214012	0.361055	-0.376749	-0.231582	-0.567105	1.57455	1.5693	0	0	0.533571	0.061702	0.23131	0.374531	1.5708	0	0
15.13	-0.259914	1.4199	-1.2263	0.766586	0.24558	0.95334	0.026438	-0.0364251	-0.289103	0.490483	-0.291567	0	0	-0.0155531	-0.10171	-0.0415495	0.38448	-0.272705	0	0	-0.569328	0.213027	0.359977	-0.36825	-0.236068	-0.564858	1.57544	1.56748	0	0	0.541812	0.0633431	0.227837	0.373704	1.5708	0	0
15.14	-0.261637	1.42081	-1.22465	0.766539	0.24554	0.953286	0.0277866	-0.0364483	-0.28893	0.491172	-0.291234	0	0	-0.0143959	-0.101451	-0.0410667	0.384526	-0.272984	0	0	-0.571876	0.21206	0.358523	-0.359485	-0.240633	-0.562478	1.5761	1.56504	0	0	0.549842	0.0645359	0.224553	0.372918	1.5708	0	0
15.15	-0.263184	1.42195	-1.22322	0.76648	0.245475	0.953169	0.0295801	-0.0369994	-0.289586	0.49246	-0.290595	0	0	-0.0124134	-0.101499	-0.0422117	0.385951	-0.273199	0	0	-0.574137	0.210928	0.356775	-0.350625	-0.245429	-0.55987	1.57655	1.56225	0	0	0.557657	0.0654428	0.221426	0.372169	1.5708	0	0
15.16	-0.265354	1.42333	-1.22129	0.766413	0.245405	0.953024	0.0317139	-0.0375164	-0.290071	0.493804	-0.290113	0	0	-0.0100638	-0.101529	-0.043691	0.387422	-0.273508	0	0	-0.576104	0.209773	0.35483	-0.341531	-0.250466	-0.556794	1.57675	1.55929	0	0	0.565254	0.0660608	0.218483	0.371664	1.5708	0	0
15.17	-0.268392	1.42492	-1.2185	0.766331	0.245322	0.952873	0.0340306	-0.0378125	-0.290301	0.494902	-0.290017	0	0	-0.00732829	-0.101655	-0.0451241	0.389329	-0.273841	0	0	-0.577776	0.2087	0.352652	-0.332102	-0.2555	-0.553129	1.57669	1.55581	0	0	0.572741	0.0663595	0.21565	0.371119	1.5708	0	0
15.18	-0.271516	1.42654	-1.21572	0.766209	0.245221	0.95276	0.0363143	-0.0379972	-0.290381	0.495804	-0.290185	0	0	-0.0047769	-0.101973	-0.0464919	0.391374	-0.274061	0	0	-0.579402	0.207549	0.350375	-0.322435	-0.26042	-0.548872	1.57639	1.55175	0	0	0.580192	0.066394	0.212937	0.370563	1.5708	0	0
15.19	-0.275182	1.42815	-1.21255	0.766062	0.245082	0.952647	0.0385184	-0.0381639	-0.290619	0.496515	-0.290738	0	0	-0.00272899	-0.102301	-0.0476886	0.392366	-0.274251	0	0	-0.580953	0.206387	0.348181	-0.312695	-0.265248	-0.544163	1.57581	1.54735	0	0	0.587619	0.0662744	0.210351	0.370098	1.5708	0	0
